<svg xmlns="http://www.w3.org/2000/svg" viewBox="0 0 338.588 274.906">
    <path d="M95.159 64.594l-6.457 1.482v-8.878l24.5-5.622v8.878l-6.457 1.484v24.968l-11.56 2.656V64.594zm6.483 19.4v-24.5l7.524-1.718v-1.224l-16.4 3.775v1.224l7.524-1.718v24.5z" data-name="Path 162"/>
    <path d="M114.243 68.265a18.718 18.718 0 0 1 1.458-7.238 24.018 24.018 0 0 1 3.931-6.561 26.526 26.526 0 0 1 5.858-5.155 23.128 23.128 0 0 1 7.16-3.046 17.171 17.171 0 0 1 7.16-.234 14.087 14.087 0 0 1 5.858 2.447 12.827 12.827 0 0 1 3.931 4.764 14.634 14.634 0 0 1 1.458 6.561 19.21 19.21 0 0 1-1.458 7.238 24.02 24.02 0 0 1-3.931 6.561 26.527 26.527 0 0 1-5.858 5.155 23.129 23.129 0 0 1-7.16 3.046 17.171 17.171 0 0 1-7.16.234 14.087 14.087 0 0 1-5.858-2.447 12.949 12.949 0 0 1-3.931-4.738 14.667 14.667 0 0 1-1.458-6.587zm4.947-1.12a10.727 10.727 0 0 0 1.041 4.817 9.382 9.382 0 0 0 2.89 3.463 9.936 9.936 0 0 0 4.3 1.8 12.8 12.8 0 0 0 5.233-.182 16.511 16.511 0 0 0 5.233-2.213 19.209 19.209 0 0 0 4.3-3.775 18.087 18.087 0 0 0 2.89-4.79 13.952 13.952 0 0 0 1.041-5.285 10.726 10.726 0 0 0-1.041-4.816 9.382 9.382 0 0 0-2.89-3.463 9.937 9.937 0 0 0-4.3-1.8 12.793 12.793 0 0 0-5.233.182 16.511 16.511 0 0 0-5.233 2.213 19.21 19.21 0 0 0-4.3 3.775 18.085 18.085 0 0 0-2.89 4.79 13.855 13.855 0 0 0-1.041 5.284zm13.434 8.566a11.188 11.188 0 0 1-4.712.156 9.062 9.062 0 0 1-3.827-1.64 8.6 8.6 0 0 1-2.6-3.1 9.592 9.592 0 0 1-.937-4.322 12.728 12.728 0 0 1 .937-4.764 16.2 16.2 0 0 1 2.6-4.3 16.393 16.393 0 0 1 3.827-3.385 14.807 14.807 0 0 1 4.712-2 11.187 11.187 0 0 1 4.712-.156 9.062 9.062 0 0 1 3.827 1.64 8.6 8.6 0 0 1 2.6 3.1 9.592 9.592 0 0 1 .937 4.322 12.728 12.728 0 0 1-.937 4.764 16.2 16.2 0 0 1-2.6 4.3 16.935 16.935 0 0 1-3.827 3.385 14.243 14.243 0 0 1-4.712 2zm-7.342-9.972a5.742 5.742 0 0 0 .573 2.63 5.144 5.144 0 0 0 1.588 1.9 5.913 5.913 0 0 0 2.343.989 7.163 7.163 0 0 0 2.864-.1 8.989 8.989 0 0 0 2.864-1.224 11.077 11.077 0 0 0 2.343-2.057 9.713 9.713 0 0 0 1.588-2.63 7.622 7.622 0 0 0 .573-2.89 5.742 5.742 0 0 0-.573-2.63 5.144 5.144 0 0 0-1.588-1.9 5.913 5.913 0 0 0-2.343-.989 7.163 7.163 0 0 0-2.864.1 8.99 8.99 0 0 0-2.864 1.224 11.079 11.079 0 0 0-2.343 2.058 9.712 9.712 0 0 0-1.588 2.63 7.432 7.432 0 0 0-.573 2.889z" data-name="Path 163"/>
    <path d="M153.92 42.203l9.243-2.135 9.138 10.883 9.086-15.074 9.243-2.135v33.846l-11.2 2.577V57.981l-7.134 11.82-7.212-8.488v12.184l-11.2 2.577V42.203zm6.613 28.274V47.202l11.768 13.825 11.716-19.24v23.275l1.354-.312V39.027l-1.354.312-11.716 19.4-11.768-13.981-1.354.312v25.723z" data-name="Path 164"/>
    <path d="M204.737 30.54l8.409-1.927 13.278 30.774-11.035 2.526-1.146-2.786-10.622 2.447-1.146 3.306-11.038 2.526zm-5.467 31.034l.989-2.76 17.339-3.983.989 2.317 1.484-.338-10.149-23.407-2 .469-10.154 28.066zm9.659-26.738l8.208 18.877-16.4 3.775zm2.369 17.522l-2.369-5.389-2.369 6.483z" data-name="Path 165"/>
    <path d="M227.235 25.359l12.08-2.786a21.159 21.159 0 0 1 6.222-.573 11.453 11.453 0 0 1 4.973 1.406 8.382 8.382 0 0 1 3.28 3.385 11.3 11.3 0 0 1 1.172 5.389 12.525 12.525 0 0 1-.729 4.478 17 17 0 0 1-1.64 3.306 16.334 16.334 0 0 1-2.369 2.786l6.561 9.659-13.148 3.02-5.259-7.368v8.566l-11.2 2.577V25.359zm10.909 19.579a21.681 21.681 0 0 0 3.983-1.328l5 6.977 1.64-.364-5.259-7.316a13.6 13.6 0 0 0 4.53-4.009 9.494 9.494 0 0 0 1.692-5.6 6.944 6.944 0 0 0-.885-3.7 6.043 6.043 0 0 0-2.447-2.265 9.161 9.161 0 0 0-3.645-.885 16.126 16.126 0 0 0-4.582.469l-5.676 1.3v25.728l1.354-.312v-7.706zm-4.3-.234v-15.57l4.322-.989q4.764-1.093 7.5.312c1.8.937 2.708 2.656 2.708 5.155a8.579 8.579 0 0 1-2.708 6.379 15.433 15.433 0 0 1-7.5 3.723zm4.582-5.259l.573-.13a7.919 7.919 0 0 0 3.385-1.64 3.927 3.927 0 0 0 1.38-3.2 2.458 2.458 0 0 0-1.38-2.577 5.663 5.663 0 0 0-3.385-.078l-.573.13z" data-name="Path 166"/>
    <path d="M282.715 47.333a20.751 20.751 0 0 1-5.988.573 9.993 9.993 0 0 1-4.582-1.38 7.618 7.618 0 0 1-2.916-3.437 13.616 13.616 0 0 1-1.015-5.6V15.96l11.2-2.577v21.062a3.6 3.6 0 0 0 .755 2.551c.495.521 1.354.625 2.552.364a3.947 3.947 0 0 0 2.551-1.536 5.061 5.061 0 0 0 .755-2.89V11.846l11.247-2.577v21.505a17.238 17.238 0 0 1-1.016 6.066 14.338 14.338 0 0 1-2.942 4.79 16.811 16.811 0 0 1-4.608 3.489 23.977 23.977 0 0 1-5.993 2.214zm0-6.092q-7.889 1.8-7.889-5.65V18.485l-1.354.312v17.106c0 2.838.807 4.843 2.4 5.962 1.588 1.146 3.879 1.354 6.847.677a12.293 12.293 0 0 0 6.873-3.827 10.482 10.482 0 0 0 2.423-7.082V14.528l-1.406.338v17.103c-.004 4.975-2.633 8.048-7.894 9.271z" data-name="Path 167"/>
    <path d="M300.785 8.461l9.243-2.135 9.138 10.883 9.086-15.074L337.495 0v33.846l-11.2 2.577V24.265l-7.16 11.794-7.212-8.487v12.184l-11.2 2.577V8.461zm6.639 28.274v-23.3l11.768 13.825 11.716-19.24v23.274l1.354-.312V5.285l-1.354.312-11.716 19.4-11.768-13.981-1.354.312v25.72z" data-name="Path 168"/>
    <path d="M58.605 124.995l13.721-3.15a19.143 19.143 0 0 1 4.817-.521 8.819 8.819 0 0 1 3.723.859 5.563 5.563 0 0 1 2.421 2.291 7.5 7.5 0 0 1 .859 3.775 8.733 8.733 0 0 1-.417 2.864 13.92 13.92 0 0 1-.885 2.109 9.884 9.884 0 0 1-1.3 1.822 6.093 6.093 0 0 1 2.109 1.354 8.075 8.075 0 0 1 1.458 2.109 7.75 7.75 0 0 1 .651 3.463 11.907 11.907 0 0 1-.885 4.608 13.051 13.051 0 0 1-2.551 3.957 15.73 15.73 0 0 1-4.035 3.072 20.931 20.931 0 0 1-5.337 1.953l-14.345 3.28zm12.809 26.842a12.823 12.823 0 0 0 6.821-3.489 8.041 8.041 0 0 0 2.213-5.624 4.708 4.708 0 0 0-.911-3.124 6.175 6.175 0 0 0-1.979-1.51 7.027 7.027 0 0 0-2.89-.443 8.675 8.675 0 0 0 2.265-1.64 9.545 9.545 0 0 0 1.614-2.161 6.373 6.373 0 0 0 .7-3.072c0-2.135-.7-3.567-2.109-4.348-1.406-.755-3.306-.859-5.728-.312l-7.576 1.744v25.723zm-6.2-12.653v-10.435l6.2-1.432q3.4-.781 4.921.312a4 4 0 0 1 1.51 3.437 6.088 6.088 0 0 1-1.51 4.114 8.667 8.667 0 0 1-4.921 2.577zm0 12.835v-11.611l6.144-1.406a12.884 12.884 0 0 1 3.02-.365 6.415 6.415 0 0 1 2.447.443 3.561 3.561 0 0 1 1.666 1.432 4.8 4.8 0 0 1 .6 2.5 6.187 6.187 0 0 1-2.135 4.947 12.758 12.758 0 0 1-5.6 2.656zm8.1-20.1c0-1.562-.885-2.135-2.63-1.718l-1.25.286v4.66l1.25-.286c1.746-.412 2.631-1.404 2.631-2.94zm-2.63 16.168c2.656-.6 3.983-1.9 3.983-3.853s-1.328-2.63-3.983-2.031l-1.25.286v5.884z" data-name="Path 169"/>
    <path d="M87.296 135.332a18.718 18.718 0 0 1 1.458-7.238 24.018 24.018 0 0 1 3.931-6.561 26.526 26.526 0 0 1 5.858-5.155 23.128 23.128 0 0 1 7.16-3.046 17.172 17.172 0 0 1 7.16-.234 14.087 14.087 0 0 1 5.858 2.447 12.827 12.827 0 0 1 3.931 4.764 14.634 14.634 0 0 1 1.458 6.561 19.21 19.21 0 0 1-1.458 7.238 24.019 24.019 0 0 1-3.931 6.561 26.524 26.524 0 0 1-5.858 5.155 23.128 23.128 0 0 1-7.16 3.046 17.172 17.172 0 0 1-7.16.234 14.086 14.086 0 0 1-5.858-2.447 12.949 12.949 0 0 1-3.931-4.738 14.33 14.33 0 0 1-1.458-6.587zm4.921-1.12a10.727 10.727 0 0 0 1.041 4.817 9.382 9.382 0 0 0 2.89 3.463 9.936 9.936 0 0 0 4.3 1.8 12.8 12.8 0 0 0 5.233-.182 16.509 16.509 0 0 0 5.233-2.213 19.209 19.209 0 0 0 4.3-3.775 18.086 18.086 0 0 0 2.89-4.791 13.952 13.952 0 0 0 1.041-5.285 10.726 10.726 0 0 0-1.041-4.817 9.382 9.382 0 0 0-2.89-3.463 9.936 9.936 0 0 0-4.3-1.8 12.791 12.791 0 0 0-5.233.182 16.509 16.509 0 0 0-5.233 2.213 19.209 19.209 0 0 0-4.3 3.775 18.086 18.086 0 0 0-2.89 4.79 14.367 14.367 0 0 0-1.041 5.286zm13.46 8.566a11.186 11.186 0 0 1-4.712.156 9.061 9.061 0 0 1-3.827-1.64 8.6 8.6 0 0 1-2.6-3.1 9.592 9.592 0 0 1-.937-4.322 12.728 12.728 0 0 1 .937-4.764 16.2 16.2 0 0 1 2.6-4.3 16.393 16.393 0 0 1 3.827-3.385 14.809 14.809 0 0 1 4.712-2 11.188 11.188 0 0 1 4.712-.156 9.062 9.062 0 0 1 3.827 1.64 8.6 8.6 0 0 1 2.6 3.1 9.592 9.592 0 0 1 .937 4.322 12.728 12.728 0 0 1-.937 4.764 16.2 16.2 0 0 1-2.6 4.3 16.933 16.933 0 0 1-3.827 3.385 13.72 13.72 0 0 1-4.712 2zm-7.368-9.971a5.741 5.741 0 0 0 .573 2.63 5.144 5.144 0 0 0 1.588 1.9 5.756 5.756 0 0 0 2.343.989 7.162 7.162 0 0 0 2.864-.1 8.99 8.99 0 0 0 2.864-1.224 11.079 11.079 0 0 0 2.343-2.057 9.712 9.712 0 0 0 1.588-2.63 7.621 7.621 0 0 0 .573-2.89 5.742 5.742 0 0 0-.573-2.63 5.144 5.144 0 0 0-1.588-1.9 5.914 5.914 0 0 0-2.343-.989 7.162 7.162 0 0 0-2.864.1 8.989 8.989 0 0 0-2.864 1.224 11.078 11.078 0 0 0-2.343 2.057 9.711 9.711 0 0 0-1.588 2.63 7.938 7.938 0 0 0-.573 2.889z" data-name="Path 170"/>
    <path d="M126.974 109.296l9.242-2.135 9.138 10.883 9.086-15.074 9.242-2.135v33.846l-11.2 2.577v-12.184l-7.16 11.794-7.186-8.487v12.184l-11.2 2.577v-33.846zm6.613 28.248v-23.275l11.768 13.825 11.716-19.24v23.276l1.354-.312v-25.724l-1.354.312-11.716 19.4-11.768-13.981-1.354.312v25.723z" data-name="Path 171"/>
    <path d="M177.092 114.709a20.077 20.077 0 0 1 1.484-7.68 24.3 24.3 0 0 1 3.983-6.535 23.784 23.784 0 0 1 5.884-4.921 24.054 24.054 0 0 1 7.16-2.89 23.541 23.541 0 0 1 5.337-.677 24.546 24.546 0 0 1 4.009.338 13.465 13.465 0 0 1 3.359 1.015l-5.516 10.65a15.178 15.178 0 0 0-1.848-.755 14.182 14.182 0 0 0-2.135-.286 10.005 10.005 0 0 0-2.812.26 9.853 9.853 0 0 0-2.994 1.25 10.221 10.221 0 0 0-2.4 2.083 9.8 9.8 0 0 0-1.614 2.63 7.622 7.622 0 0 0-.573 2.89 5.751 5.751 0 0 0 .6 2.63 4.836 4.836 0 0 0 1.666 1.875 5.935 5.935 0 0 0 2.473.963 7.942 7.942 0 0 0 3.1-.156 12.306 12.306 0 0 0 2.994-1.094 13.027 13.027 0 0 0 2.213-1.432 11.8 11.8 0 0 0 1.849-1.744l5.519 8.123a21.6 21.6 0 0 1-3.359 2.76 36.848 36.848 0 0 1-4.035 2.239 26.393 26.393 0 0 1-5.415 1.849 20.613 20.613 0 0 1-7.576.443 14.011 14.011 0 0 1-5.988-2.239 11.649 11.649 0 0 1-3.931-4.712 15.286 15.286 0 0 1-1.434-6.877zm6.613-1.51a13.742 13.742 0 0 1 .859-4.764 14.556 14.556 0 0 1 2.447-4.27 14.928 14.928 0 0 1 3.827-3.359 17.106 17.106 0 0 1 7.5-2.473 8.242 8.242 0 0 1 1.823.026 6.279 6.279 0 0 1 1.536.26l.729-1.38c-.573-.1-1.146-.182-1.8-.26a18.542 18.542 0 0 0-2.057.026 16.968 16.968 0 0 0-2.682.417 18.171 18.171 0 0 0-5.129 2.083 18.579 18.579 0 0 0-4.322 3.593 17.876 17.876 0 0 0-2.994 4.79 14.175 14.175 0 0 0-1.12 5.624 11.478 11.478 0 0 0 1.067 5.129 9 9 0 0 0 2.968 3.411 10.12 10.12 0 0 0 4.426 1.588 16.594 16.594 0 0 0 8.2-1.224c.833-.365 1.562-.7 2.161-1.041a16.617 16.617 0 0 0 1.8-1.224l-.729-1.041a9.085 9.085 0 0 1-1.588 1.12 14.228 14.228 0 0 1-1.9.963 13.706 13.706 0 0 1-2.578.807 13.4 13.4 0 0 1-5.207.286 8.788 8.788 0 0 1-3.905-1.588 7.924 7.924 0 0 1-2.473-3.124 11.2 11.2 0 0 1-.859-4.372z" data-name="Path 172"/>
    <path d="M210.157 90.16l11.2-2.577v11.508l6.248-1.432V86.151l11.247-2.577v33.846l-11.247 2.577v-12.524l-6.248 1.432v12.523l-11.2 2.577zm6.613 28.274v-12.835l15.439-3.541v12.835l1.354-.312V88.858l-1.354.312v11.664l-15.439 3.539V92.711l-1.354.312v25.723z" data-name="Path 173"/>
    <path d="M241.737 99.872a18.718 18.718 0 0 1 1.458-7.238 24.017 24.017 0 0 1 3.931-6.561 26.523 26.523 0 0 1 5.858-5.155 23.127 23.127 0 0 1 7.16-3.046 17.17 17.17 0 0 1 7.16-.234 14.087 14.087 0 0 1 5.858 2.447 12.827 12.827 0 0 1 3.931 4.764 14.634 14.634 0 0 1 1.458 6.561 19.209 19.209 0 0 1-1.458 7.238 24.018 24.018 0 0 1-3.931 6.561 26.526 26.526 0 0 1-5.858 5.155 23.129 23.129 0 0 1-7.16 3.046 17.618 17.618 0 0 1-7.16.234 14.087 14.087 0 0 1-5.858-2.447 12.949 12.949 0 0 1-3.931-4.738 14.481 14.481 0 0 1-1.458-6.587zm4.921-1.146a10.727 10.727 0 0 0 1.041 4.816 9.381 9.381 0 0 0 2.89 3.463 9.937 9.937 0 0 0 4.3 1.8 12.8 12.8 0 0 0 5.233-.182 16.51 16.51 0 0 0 5.233-2.213 19.21 19.21 0 0 0 4.3-3.775 18.089 18.089 0 0 0 2.89-4.79 13.952 13.952 0 0 0 1.041-5.285 10.727 10.727 0 0 0-1.041-4.817 9.383 9.383 0 0 0-2.89-3.463 9.937 9.937 0 0 0-4.3-1.8 12.792 12.792 0 0 0-5.233.182 16.512 16.512 0 0 0-5.233 2.213 19.21 19.21 0 0 0-4.3 3.775 18.087 18.087 0 0 0-2.89 4.79 14.471 14.471 0 0 0-1.041 5.286zm13.46 8.592a11.187 11.187 0 0 1-4.712.156 9.062 9.062 0 0 1-3.827-1.64 8.827 8.827 0 0 1-2.6-3.1 9.592 9.592 0 0 1-.937-4.322 12.727 12.727 0 0 1 .937-4.764 16.2 16.2 0 0 1 2.6-4.3 16.392 16.392 0 0 1 3.827-3.385 14.807 14.807 0 0 1 4.712-2 11.188 11.188 0 0 1 4.712-.156 9.062 9.062 0 0 1 3.827 1.64 8.6 8.6 0 0 1 2.6 3.1 9.593 9.593 0 0 1 .937 4.322 12.729 12.729 0 0 1-.937 4.764 16.2 16.2 0 0 1-2.6 4.3 16.935 16.935 0 0 1-3.827 3.375 14.808 14.808 0 0 1-4.712 2.01zm-7.342-10a5.743 5.743 0 0 0 .573 2.63 5.143 5.143 0 0 0 1.588 1.9 5.756 5.756 0 0 0 2.343.989 7.163 7.163 0 0 0 2.864-.1 8.99 8.99 0 0 0 2.864-1.224 11.081 11.081 0 0 0 2.343-2.057 9.715 9.715 0 0 0 1.588-2.63 7.622 7.622 0 0 0 .573-2.89 5.742 5.742 0 0 0-.575-2.628 5.144 5.144 0 0 0-1.588-1.9 5.914 5.914 0 0 0-2.343-.989 7.163 7.163 0 0 0-2.864.1 8.989 8.989 0 0 0-2.864 1.224 11.08 11.08 0 0 0-2.343 2.057 9.715 9.715 0 0 0-1.588 2.63 7.622 7.622 0 0 0-.571 2.89z" data-name="Path 174"/>
    <path d="M308.674 80.423a14.875 14.875 0 0 1-1.25 6.248 14.6 14.6 0 0 1-3.437 4.764 20.322 20.322 0 0 1-5.1 3.411 31.819 31.819 0 0 1-6.274 2.161v8.071l-11.2 2.577V73.809l11.2-2.578a26.277 26.277 0 0 1 6.274-.729 12.378 12.378 0 0 1 5.1 1.067 7.56 7.56 0 0 1 3.437 3.2 11.146 11.146 0 0 1 1.25 5.654zm-5.1 1.172a7.8 7.8 0 0 0-.807-3.775 5.223 5.223 0 0 0-2.291-2.213 8.4 8.4 0 0 0-3.489-.807 16.8 16.8 0 0 0-4.4.469l-5.936 1.354v25.723l1.354-.312v-8.071l4.582-1.041a20.879 20.879 0 0 0 4.4-1.536 13.77 13.77 0 0 0 3.489-2.4 9.811 9.811 0 0 0 3.1-7.394zm-1.458.338a8.811 8.811 0 0 1-.781 3.827 8.687 8.687 0 0 1-2.109 2.812 11.282 11.282 0 0 1-3.02 1.927 18.777 18.777 0 0 1-3.593 1.2l-4.582 1.041V77.509l4.582-1.041a16.311 16.311 0 0 1 3.593-.443 7.812 7.812 0 0 1 3.02.547 4.4 4.4 0 0 1 2.109 1.849 6.959 6.959 0 0 1 .78 3.512zm-9.5 5.936l.469-.1a5.471 5.471 0 0 0 3.176-1.718 4.592 4.592 0 0 0 .963-2.994 3.084 3.084 0 0 0-.963-2.551c-.651-.521-1.718-.6-3.176-.26l-.469.1z" data-name="Path 175"/>
    <path d="M338.588 73.55a14.875 14.875 0 0 1-1.25 6.248 14.6 14.6 0 0 1-3.437 4.764 20.323 20.323 0 0 1-5.1 3.411 31.818 31.818 0 0 1-6.272 2.163v8.071l-11.2 2.577V66.936l11.2-2.577a26.275 26.275 0 0 1 6.275-.729 12.378 12.378 0 0 1 5.1 1.067 7.56 7.56 0 0 1 3.437 3.2 11.212 11.212 0 0 1 1.247 5.653zm-5.1 1.172a7.8 7.8 0 0 0-.807-3.775 5.223 5.223 0 0 0-2.291-2.213 8.4 8.4 0 0 0-3.489-.807 16.8 16.8 0 0 0-4.4.469l-5.936 1.354v25.723l1.354-.312V87.09l4.582-1.041a20.882 20.882 0 0 0 4.4-1.536 13.771 13.771 0 0 0 3.489-2.4 10.124 10.124 0 0 0 2.291-3.254 10.481 10.481 0 0 0 .804-4.138zm-1.484.338a8.811 8.811 0 0 1-.781 3.827 8.685 8.685 0 0 1-2.109 2.812 11.283 11.283 0 0 1-3.02 1.927 18.779 18.779 0 0 1-3.593 1.2l-4.582 1.041V70.636l4.582-1.041a16.311 16.311 0 0 1 3.593-.443 7.812 7.812 0 0 1 3.02.547 4.4 4.4 0 0 1 2.109 1.848 6.959 6.959 0 0 1 .778 3.513zm-9.5 5.936l.469-.1a5.471 5.471 0 0 0 3.176-1.718 4.592 4.592 0 0 0 .963-2.994 3.084 3.084 0 0 0-.963-2.551c-.651-.521-1.718-.6-3.176-.26l-.469.1z" data-name="Path 176"/>
    <path d="M0 199.326l11.351-2.6v7.811l6.613-9.321 13.721-3.15-12.341 18.296 12.992 15.39-13.512 3.1-7.472-8.748v10.44L0 233.172zM6.613 227.6v-6.847l5.467-7.811 9.555 11.2 1.64-.365-10.257-12.115 9.4-13.434-1.692.391-14.113 20.103v-16.845l-1.354.312v25.723z" data-name="Path 177"/>
    <path d="M27.597 209.949a18.719 18.719 0 0 1 1.458-7.238 24.019 24.019 0 0 1 3.931-6.561 26.526 26.526 0 0 1 5.858-5.155 22.522 22.522 0 0 1 7.16-3.046 17.17 17.17 0 0 1 7.16-.234 14.087 14.087 0 0 1 5.858 2.447 12.95 12.95 0 0 1 3.931 4.738 14.634 14.634 0 0 1 1.458 6.561 19.21 19.21 0 0 1-1.458 7.238 24.019 24.019 0 0 1-3.931 6.561 26.524 26.524 0 0 1-5.858 5.155 23.128 23.128 0 0 1-7.16 3.046 17.17 17.17 0 0 1-7.16.234 14.087 14.087 0 0 1-5.858-2.447 12.95 12.95 0 0 1-3.931-4.738 14.3 14.3 0 0 1-1.458-6.561zm4.921-1.146a10.726 10.726 0 0 0 1.041 4.817 9.382 9.382 0 0 0 2.89 3.463 9.937 9.937 0 0 0 4.3 1.8 12.805 12.805 0 0 0 5.233-.182 16.512 16.512 0 0 0 5.233-2.213 19.209 19.209 0 0 0 4.3-3.775 18.086 18.086 0 0 0 2.89-4.791 13.952 13.952 0 0 0 1.041-5.285 10.726 10.726 0 0 0-1.041-4.817 9.382 9.382 0 0 0-2.89-3.463 9.937 9.937 0 0 0-4.3-1.8 12.792 12.792 0 0 0-5.233.182 16.511 16.511 0 0 0-5.233 2.213 19.209 19.209 0 0 0-4.3 3.775 18.085 18.085 0 0 0-2.89 4.791 14.47 14.47 0 0 0-1.041 5.285zm13.46 8.592a11.187 11.187 0 0 1-4.712.156 9.062 9.062 0 0 1-3.827-1.64 8.6 8.6 0 0 1-2.6-3.1 9.592 9.592 0 0 1-.937-4.322 12.728 12.728 0 0 1 .937-4.764 16.2 16.2 0 0 1 2.6-4.3 16.4 16.4 0 0 1 3.827-3.385 14.81 14.81 0 0 1 4.712-2 11.188 11.188 0 0 1 4.712-.156 9.063 9.063 0 0 1 3.827 1.64 8.6 8.6 0 0 1 2.6 3.1 9.592 9.592 0 0 1 .937 4.322 12.728 12.728 0 0 1-.937 4.764 16.2 16.2 0 0 1-2.6 4.3 16.933 16.933 0 0 1-3.827 3.385 14.807 14.807 0 0 1-4.712 2zm-7.342-10a5.742 5.742 0 0 0 .573 2.63 5.144 5.144 0 0 0 1.588 1.9 5.912 5.912 0 0 0 2.343.989 7.162 7.162 0 0 0 2.864-.1 8.99 8.99 0 0 0 2.864-1.229 11.08 11.08 0 0 0 2.343-2.057 9.713 9.713 0 0 0 1.588-2.63 7.622 7.622 0 0 0 .573-2.89 5.742 5.742 0 0 0-.573-2.63 5.144 5.144 0 0 0-1.588-1.9 5.913 5.913 0 0 0-2.343-.989 7.162 7.162 0 0 0-2.864.1 8.99 8.99 0 0 0-2.864 1.224 11.08 11.08 0 0 0-2.343 2.057 9.713 9.713 0 0 0-1.588 2.63 7.622 7.622 0 0 0-.573 2.897z" data-name="Path 178"/>
    <path d="M67.275 183.887l9.242-2.135 9.138 10.883 9.086-15.074 9.243-2.135v33.846l-11.2 2.578v-12.185l-7.134 11.794-7.212-8.487v12.184l-11.2 2.577v-33.846zm6.613 28.248V188.86l11.768 13.825 11.716-19.24v23.3l1.354-.312v-25.722l-1.354.312-11.716 19.4-11.768-13.981-1.354.312v25.723z" data-name="Path 179"/>
    <path d="M107.682 174.592l13.721-3.15a19.142 19.142 0 0 1 4.817-.521 8.821 8.821 0 0 1 3.723.859 5.563 5.563 0 0 1 2.421 2.291 7.5 7.5 0 0 1 .859 3.775 8.733 8.733 0 0 1-.417 2.864 13.928 13.928 0 0 1-.885 2.109 9.892 9.892 0 0 1-1.3 1.822 6.091 6.091 0 0 1 2.109 1.354 8.074 8.074 0 0 1 1.458 2.109 7.751 7.751 0 0 1 .651 3.463 11.906 11.906 0 0 1-.885 4.608 13.05 13.05 0 0 1-2.551 3.957 15.727 15.727 0 0 1-4.035 3.072 20.932 20.932 0 0 1-5.337 1.953l-14.293 3.28v-33.845zm12.809 26.842a12.823 12.823 0 0 0 6.821-3.489 8.041 8.041 0 0 0 2.213-5.624 4.708 4.708 0 0 0-.911-3.124 6.174 6.174 0 0 0-1.979-1.51 7.027 7.027 0 0 0-2.89-.443 8.671 8.671 0 0 0 2.265-1.64 9.545 9.545 0 0 0 1.614-2.161 6.373 6.373 0 0 0 .7-3.072c0-2.135-.7-3.567-2.109-4.348-1.406-.755-3.307-.859-5.728-.312l-7.576 1.744v25.723zm-6.2-12.627v-10.44l6.2-1.432q3.4-.781 4.921.312a4 4 0 0 1 1.51 3.437 6.088 6.088 0 0 1-1.51 4.114 8.666 8.666 0 0 1-4.921 2.577zm0 12.835v-11.611l6.144-1.406a12.882 12.882 0 0 1 3.02-.365 6.415 6.415 0 0 1 2.447.443 3.561 3.561 0 0 1 1.666 1.432 4.8 4.8 0 0 1 .6 2.5 6.187 6.187 0 0 1-2.135 4.947 12.756 12.756 0 0 1-5.6 2.656zm8.1-20.125c0-1.562-.885-2.135-2.63-1.718l-1.25.286v4.66l1.25-.286c1.746-.413 2.631-1.379 2.631-2.941zm-2.63 16.168c2.656-.6 3.983-1.9 3.983-3.853s-1.328-2.63-3.983-2.031l-1.25.286v5.884z" data-name="Path 180"/>
    <path d="M137.154 167.824l11.872-2.734v33.846l-11.872 2.734zm6.613 28.274v-25.723l-1.354.312v25.723z" data-name="Path 181"/>
    <path d="M152.723 164.256l9.19-2.109 9.659 10.8v-13.039l10.987-2.525v33.846l-9.242 2.135-9.607-10.781v12.992l-10.987 2.527zm6.248 28.352v-23.431l17.339 19.448 1.354-.312V162.59l-1.354.312v23.432l-17.339-19.451-1.354.312v25.723z" data-name="Path 182"/>
    <path d="M196.644 154.155l8.409-1.927 13.3 30.774-11.035 2.526-1.146-2.786-10.622 2.447-1.146 3.306-11.038 2.526zm-5.467 31.034l.989-2.76 17.339-3.983.989 2.317 1.484-.339-10.154-23.406-2 .469-10.158 28.066zm9.659-26.712l8.2 18.876-16.4 3.775zm2.369 17.522l-2.369-5.389-2.369 6.483z" data-name="Path 183"/>
    <path d="M228.85 163.707a20.076 20.076 0 0 1 1.484-7.68 24.3 24.3 0 0 1 3.983-6.535 23.779 23.779 0 0 1 5.884-4.921 24.054 24.054 0 0 1 7.16-2.89 23.545 23.545 0 0 1 5.337-.677 24.554 24.554 0 0 1 4.009.338 13.466 13.466 0 0 1 3.359 1.015l-5.516 10.65a15.179 15.179 0 0 0-1.849-.755 14.164 14.164 0 0 0-2.135-.286 10 10 0 0 0-2.812.26 9.851 9.851 0 0 0-2.994 1.25 10.224 10.224 0 0 0-2.4 2.083 9.8 9.8 0 0 0-1.614 2.63 7.622 7.622 0 0 0-.573 2.89 5.752 5.752 0 0 0 .6 2.63 4.836 4.836 0 0 0 1.666 1.875 5.936 5.936 0 0 0 2.473.963 7.943 7.943 0 0 0 3.1-.156 12.307 12.307 0 0 0 2.994-1.094 13.033 13.033 0 0 0 2.213-1.432 11.8 11.8 0 0 0 1.849-1.744l5.52 8.123a21.6 21.6 0 0 1-3.359 2.76 36.845 36.845 0 0 1-4.036 2.239 24.922 24.922 0 0 1-5.415 1.849 20.613 20.613 0 0 1-7.576.443 14.009 14.009 0 0 1-5.988-2.239 11.648 11.648 0 0 1-3.931-4.712 15.365 15.365 0 0 1-1.433-6.877zm6.613-1.536a13.744 13.744 0 0 1 .859-4.764 14.555 14.555 0 0 1 2.447-4.27 14.927 14.927 0 0 1 3.827-3.359 17.1 17.1 0 0 1 7.5-2.473 8.248 8.248 0 0 1 1.823.026 6.284 6.284 0 0 1 1.536.26l.729-1.38c-.573-.1-1.146-.182-1.8-.26a18.568 18.568 0 0 0-2.057.026 16.973 16.973 0 0 0-2.682.417 18.174 18.174 0 0 0-5.129 2.083 18.576 18.576 0 0 0-4.322 3.593 17.878 17.878 0 0 0-2.994 4.791 14.176 14.176 0 0 0-1.12 5.624 11.477 11.477 0 0 0 1.068 5.129 9 9 0 0 0 2.968 3.411 10.121 10.121 0 0 0 4.426 1.588 15.189 15.189 0 0 0 5.363-.312 15.786 15.786 0 0 0 2.838-.911c.833-.365 1.562-.7 2.161-1.041a16.592 16.592 0 0 0 1.8-1.224l-.729-1.041a9.093 9.093 0 0 1-1.588 1.12 14.227 14.227 0 0 1-1.9.963 13.705 13.705 0 0 1-2.577.807 13.4 13.4 0 0 1-5.207.286 8.788 8.788 0 0 1-3.905-1.588 7.925 7.925 0 0 1-2.473-3.124 11.007 11.007 0 0 1-.862-4.374z" data-name="Path 184"/>
    <path d="M261.108 156.29a18.72 18.72 0 0 1 1.458-7.238 24.02 24.02 0 0 1 3.931-6.561 26.527 26.527 0 0 1 5.858-5.155 23.128 23.128 0 0 1 7.16-3.046 17.5 17.5 0 0 1 7.134-.234 14.088 14.088 0 0 1 5.858 2.447 12.827 12.827 0 0 1 3.931 4.764 14.635 14.635 0 0 1 1.458 6.561 19.311 19.311 0 0 1-1.458 7.238 24.02 24.02 0 0 1-3.931 6.561 26.532 26.532 0 0 1-5.858 5.155 23.257 23.257 0 0 1-7.134 3.046 17.617 17.617 0 0 1-7.16.234 14.086 14.086 0 0 1-5.858-2.447 12.951 12.951 0 0 1-3.931-4.739 14.667 14.667 0 0 1-1.458-6.586zm4.947-1.146a10.727 10.727 0 0 0 1.041 4.817 9.381 9.381 0 0 0 2.89 3.463 9.936 9.936 0 0 0 4.3 1.8 12.805 12.805 0 0 0 5.233-.182 16.511 16.511 0 0 0 5.233-2.213 19.206 19.206 0 0 0 4.3-3.775 18.088 18.088 0 0 0 2.89-4.79 13.953 13.953 0 0 0 1.041-5.285 10.727 10.727 0 0 0-1.041-4.817 9.383 9.383 0 0 0-2.89-3.463 9.937 9.937 0 0 0-4.3-1.8 12.792 12.792 0 0 0-5.233.182 16.507 16.507 0 0 0-5.233 2.213 19.207 19.207 0 0 0-4.3 3.775 18.085 18.085 0 0 0-2.89 4.79 14.578 14.578 0 0 0-1.041 5.285zm13.46 8.592a11.186 11.186 0 0 1-4.712.156 9.061 9.061 0 0 1-3.827-1.64 8.6 8.6 0 0 1-2.6-3.1 9.593 9.593 0 0 1-.937-4.322 12.729 12.729 0 0 1 .937-4.764 16.2 16.2 0 0 1 2.6-4.3 16.393 16.393 0 0 1 3.827-3.385 14.808 14.808 0 0 1 4.712-2 11.188 11.188 0 0 1 4.712-.156 9.061 9.061 0 0 1 3.827 1.64 8.6 8.6 0 0 1 2.6 3.1 9.592 9.592 0 0 1 .937 4.322 12.727 12.727 0 0 1-.937 4.764 16.2 16.2 0 0 1-2.6 4.3 16.93 16.93 0 0 1-3.827 3.385 14.242 14.242 0 0 1-4.712 2zm-7.368-9.972a5.743 5.743 0 0 0 .573 2.63 5.144 5.144 0 0 0 1.588 1.9 5.914 5.914 0 0 0 2.343.989 7.163 7.163 0 0 0 2.864-.1 8.989 8.989 0 0 0 2.864-1.224 11.078 11.078 0 0 0 2.343-2.057 9.718 9.718 0 0 0 1.588-2.63 7.622 7.622 0 0 0 .573-2.89 5.742 5.742 0 0 0-.573-2.63 5.145 5.145 0 0 0-1.588-1.9 5.912 5.912 0 0 0-2.343-.989 7.165 7.165 0 0 0-2.864.1 8.992 8.992 0 0 0-2.864 1.224 11.083 11.083 0 0 0-2.343 2.057 9.714 9.714 0 0 0-1.588 2.63 7.938 7.938 0 0 0-.573 2.89z" data-name="Path 185"/>
    <path d="M300.785 130.228l9.243-2.135 9.138 10.883 9.086-15.074 9.242-2.135v33.846l-11.2 2.577v-12.184l-7.16 11.794-7.212-8.487v12.184l-11.2 2.577v-33.846zm6.639 28.274v-23.275l11.768 13.825 11.716-19.24v23.275l1.354-.312v-25.723l-1.354.312-11.716 19.4-11.768-13.981-1.354.312v25.723z" data-name="Path 186"/>
    <path d="M71.571 243.768l11.872-2.734 4.035 10.883 4.035-12.757 7.68-1.77 4.035 10.883 4.035-12.757 11.874-2.735-11.56 36.5-8.722 2-3.515-9.451-3.515 11.065-8.722 2zm16.819 25.931l6.977-22.859 6.977 19.657 1.3-.312 8.774-27.728-1.432.338-7.993 25.228-7.68-21.635-7.68 25.15-7.991-21.557-1.406.338 8.774 23.718z" data-name="Path 187"/>
    <path d="M119.97 232.651l11.2-2.578v11.508l6.248-1.432v-11.508l11.247-2.577v33.846l-11.247 2.578v-12.524l-6.248 1.432v12.523l-11.2 2.577zm6.613 28.274V248.09l15.439-3.541v12.835l1.354-.312v-25.723l-1.354.312v11.664l-15.439 3.539v-11.662l-1.354.312v25.723z" data-name="Path 188"/>
    <path d="M162.746 222.836l8.409-1.927 13.3 30.774-11.035 2.526-1.146-2.786-10.622 2.447-1.146 3.307-11.038 2.525zm-5.467 31.034l.989-2.76 17.339-3.983.989 2.317 1.484-.338-10.153-23.407-2 .469-10.159 28.066zm9.685-26.738l8.2 18.876-16.4 3.775zm2.343 17.522l-2.369-5.389-2.369 6.483z" data-name="Path 189"/>
    <path d="M189.875 225.466l-6.457 1.482v-8.878l24.5-5.622v8.878l-6.457 1.484v24.968l-11.56 2.656v-24.968zm6.457 19.422v-24.5l7.524-1.718v-1.222l-16.4 3.775v1.225l7.524-1.718v24.5z" data-name="Path 190"/>
    <path d="M208.772 235.593a18.782 18.782 0 0 0 2.421 0 20.8 20.8 0 0 0 2.4-.156 25.655 25.655 0 0 0 2.708-.469c1.614-.365 2.421-1.12 2.421-2.291a1.415 1.415 0 0 0-.729-1.172 18.092 18.092 0 0 0-1.875-1.093c-.755-.391-1.562-.807-2.421-1.3a12.013 12.013 0 0 1-2.421-1.77 8.876 8.876 0 0 1-1.875-2.551 8.009 8.009 0 0 1-.729-3.619 10.841 10.841 0 0 1 .885-4.426 12.251 12.251 0 0 1 2.473-3.619 15.055 15.055 0 0 1 3.7-2.708 17.977 17.977 0 0 1 4.556-1.666c.833-.182 1.692-.338 2.525-.443s1.588-.208 2.265-.286c.781-.078 1.536-.156 2.265-.208v9.477c-.286.026-.6.078-.937.1-.286.026-.6.078-.937.1a8.92 8.92 0 0 0-1.094.208c-.208.052-.469.13-.781.208a4.463 4.463 0 0 0-.885.338 2.475 2.475 0 0 0-.729.521 1.06 1.06 0 0 0-.312.781q0 .39.7.859c.469.286 1.041.651 1.744 1.015.677.391 1.432.833 2.265 1.354a10.589 10.589 0 0 1 2.266 1.936 11.261 11.261 0 0 1 1.744 2.708 8.921 8.921 0 0 1 .7 3.7 13.032 13.032 0 0 1-.729 4.348 12.061 12.061 0 0 1-2.291 3.931 15.893 15.893 0 0 1-3.957 3.2 20.842 20.842 0 0 1-5.728 2.161 40.461 40.461 0 0 1-3.7.677c-1.146.13-2.135.234-3.02.26a25.219 25.219 0 0 1-2.786.026v-10.131zm4.426 5.077c.495 0 1.015-.052 1.588-.1.495-.052 1.015-.1 1.562-.182s1.093-.182 1.666-.312a14.345 14.345 0 0 0 2.864-.989 9.744 9.744 0 0 0 2.5-1.666 7.956 7.956 0 0 0 1.77-2.369 6.832 6.832 0 0 0 .651-3.072 4.632 4.632 0 0 0-.755-2.6 9.168 9.168 0 0 0-1.953-2.083 24.16 24.16 0 0 0-2.525-1.744c-.885-.547-1.744-1.093-2.525-1.666a10.255 10.255 0 0 1-1.953-1.849 3.386 3.386 0 0 1-.755-2.187 4.325 4.325 0 0 1 1.2-3.1 7.621 7.621 0 0 1 3.879-1.875c.286-.052.573-.13.859-.182s.6-.1.859-.13a7.949 7.949 0 0 0 .833-.13v-1.328a6.974 6.974 0 0 1-.781.13c-.234.026-.521.052-.807.1s-.6.1-.911.182a10.2 10.2 0 0 0-4.686 2.317 5.574 5.574 0 0 0-1.849 4.3 4.356 4.356 0 0 0 .755 2.5 8.757 8.757 0 0 0 1.953 1.979 21.519 21.519 0 0 0 2.526 1.718c.885.547 1.744 1.093 2.525 1.666a9.7 9.7 0 0 1 1.953 1.9 4.012 4.012 0 0 1 .755 2.369 5.446 5.446 0 0 1-1.718 4.088 9.484 9.484 0 0 1-4.712 2.343 18.006 18.006 0 0 1-3.254.495c-.521.052-1.041.078-1.536.1v1.38z" data-name="Path 191"/>
    <path d="M243.768 204.221l8.409-1.927 13.3 30.774-11.035 2.526-1.146-2.786-10.622 2.447-1.146 3.307-11.038 2.524zm-5.441 31.034l.989-2.76 17.339-3.983.989 2.317 1.484-.338-10.153-23.407-2 .469-10.154 28.066zm9.659-26.738l8.204 18.877-16.4 3.775zm2.369 17.522l-2.369-5.389-2.369 6.483z" data-name="Path 192"/>
    <path d="M293.548 205.679a14.875 14.875 0 0 1-1.25 6.248 14.6 14.6 0 0 1-3.437 4.765 20.325 20.325 0 0 1-5.1 3.411 31.812 31.812 0 0 1-6.272 2.162v8.071l-11.2 2.578v-33.849l11.2-2.577a26.272 26.272 0 0 1 6.275-.729 12.377 12.377 0 0 1 5.1 1.067 7.561 7.561 0 0 1 3.437 3.2 11.08 11.08 0 0 1 1.247 5.653zm-5.1 1.146a7.8 7.8 0 0 0-.807-3.775 5.223 5.223 0 0 0-2.291-2.213 8.4 8.4 0 0 0-3.489-.807 16.8 16.8 0 0 0-4.4.469l-5.936 1.354v25.723l1.354-.312v-8.071l4.582-1.041a20.883 20.883 0 0 0 4.4-1.536 13.77 13.77 0 0 0 3.489-2.4 9.812 9.812 0 0 0 3.1-7.394zm-1.458.339a8.813 8.813 0 0 1-.781 3.827 8.684 8.684 0 0 1-2.109 2.812 11.283 11.283 0 0 1-3.02 1.927 18.774 18.774 0 0 1-3.593 1.2l-4.585 1.035v-15.228l4.587-1.042a16.309 16.309 0 0 1 3.593-.443 7.812 7.812 0 0 1 3.02.547 4.4 4.4 0 0 1 2.109 1.848 7.028 7.028 0 0 1 .778 3.518zm-9.529 5.962l.469-.1a5.472 5.472 0 0 0 3.176-1.718 4.592 4.592 0 0 0 .963-2.994 3.084 3.084 0 0 0-.963-2.551c-.651-.521-1.718-.6-3.176-.26l-.469.1z" data-name="Path 193"/>
    <path d="M323.436 198.805a14.876 14.876 0 0 1-1.25 6.249 14.6 14.6 0 0 1-3.437 4.764 20.317 20.317 0 0 1-5.1 3.411 31.813 31.813 0 0 1-6.275 2.161v8.075l-11.2 2.578v-33.878l11.2-2.577a26.275 26.275 0 0 1 6.275-.729 12.378 12.378 0 0 1 5.1 1.067 7.561 7.561 0 0 1 3.437 3.2 11.25 11.25 0 0 1 1.25 5.679zm-5.077 1.172a7.8 7.8 0 0 0-.807-3.775 5.223 5.223 0 0 0-2.291-2.213 8.4 8.4 0 0 0-3.489-.807 16.8 16.8 0 0 0-4.4.469l-5.936 1.354v25.723l1.354-.312v-8.071l4.582-1.041a20.882 20.882 0 0 0 4.4-1.536 13.77 13.77 0 0 0 3.489-2.4 10.118 10.118 0 0 0 2.291-3.254 10.667 10.667 0 0 0 .807-4.138zm-1.484.338a8.811 8.811 0 0 1-.781 3.827 8.684 8.684 0 0 1-2.109 2.812 11.286 11.286 0 0 1-3.02 1.927 18.777 18.777 0 0 1-3.593 1.2l-4.582 1.041v-15.233l4.582-1.041a16.313 16.313 0 0 1 3.593-.443 7.811 7.811 0 0 1 3.02.547 4.4 4.4 0 0 1 2.109 1.848 6.893 6.893 0 0 1 .783 3.515zm-9.5 5.936l.469-.1a5.471 5.471 0 0 0 3.176-1.718 4.592 4.592 0 0 0 .963-2.994 3.084 3.084 0 0 0-.963-2.551c-.651-.521-1.718-.6-3.176-.26l-.469.1z" data-name="Path 194"/>
    <path d="M325.805 185.371l11.976-2.76-1.8 24.265-8.409 1.927zm.365 25.28l11.247-2.578v8.462l-11.247 2.577zm8.1 2.968v-1.172l-4.947 1.146v1.172zm-1.848-9.112v-16.896l-1.25.286v16.9z" data-name="Path 195"/>
</svg>
