<svg xmlns="http://www.w3.org/2000/svg" id="tittle" viewBox="0 0 1027.569 454.34">
    <defs>
        <style>
            .cls-1{fill:#fff}
        </style>
    </defs>
    <g id="Group_120" data-name="Group 120">
        <g id="Group_119" data-name="Group 119">
            <path id="Path_150" d="M0 194.838L52.027 182.9v111.349l43.11-9.875v39.647L0 345.834zm82.093 114v-5.453l-52.542 12.088V206.187l-6.116 1.4v114.739z" class="cls-1" data-name="Path 150" transform="translate(0 -48.116)"/>
            <path id="Path_151" d="M140.3 162.559l52.985-12.159v151L140.3 313.555v-151zm29.551 126.014V173.834l-6.116 1.4v114.74z" class="cls-1" data-name="Path 151" transform="translate(-36.909 -39.566)"/>
            <path id="Path_152" d="M332.843 165.184a22.484 22.484 0 0 0-10.538-3.1 41.683 41.683 0 0 0-12.454.958 38.2 38.2 0 0 0-12.454 5.232 41.032 41.032 0 0 0-9.727 8.769 40.215 40.215 0 0 0-6.411 11.57 38.6 38.6 0 0 0-2.358 13.191 27.719 27.719 0 0 0 2.579 12.096 22.023 22.023 0 0 0 7 8.475 25.062 25.062 0 0 0 10.464 4.2 31.44 31.44 0 0 0 12.749-.59 38.874 38.874 0 0 0 14.517-6.632 49.143 49.143 0 0 0 11.275-11.5l-14.075 3.242v-31.688l60.28-13.854v50.258a115.68 115.68 0 0 1-12.9 19.823 120.687 120.687 0 0 1-16.728 16.876 109.767 109.767 0 0 1-20.044 12.97 95.941 95.941 0 0 1-22.255 8.033c-11.275 2.579-21.887 3.021-31.909 1.179a62.5 62.5 0 0 1-26.154-10.76 56.694 56.694 0 0 1-17.613-21.076 66.5 66.5 0 0 1-6.485-29.772 89.767 89.767 0 0 1 6.116-32.2A107.033 107.033 0 0 1 277.795 129a96.364 96.364 0 0 1 31.54-13.486c8.769-1.99 16.36-2.948 22.771-2.727a79.529 79.529 0 0 1 16.212 1.916 46.66 46.66 0 0 1 12.9 4.937zm2.358-29.772a37.441 37.441 0 0 0-6.78-.737 72.67 72.67 0 0 0-7.738.221 69.286 69.286 0 0 0-9.875 1.548A74.568 74.568 0 0 0 287.6 146.1a81.226 81.226 0 0 0-18.8 16.21 74.264 74.264 0 0 0-12.528 21.076A67.565 67.565 0 0 0 251.708 208c0 8.622 1.548 16.065 4.716 22.476a38.5 38.5 0 0 0 12.9 15.254 46.561 46.561 0 0 0 19.086 7.517 61.78 61.78 0 0 0 23.361-1.032A73.69 73.69 0 0 0 341.1 238.14a87.785 87.785 0 0 0 21.371-24.466V184.05l-24.834 5.674v5.453l18.792-4.274v22.624a73.606 73.606 0 0 1-18.865 20.855 67.179 67.179 0 0 1-25.645 12.012 57.207 57.207 0 0 1-21 1.105 40.25 40.25 0 0 1-17.1-6.706 35.553 35.553 0 0 1-11.57-13.854 45.76 45.76 0 0 1-4.2-20.192 60.983 60.983 0 0 1 4.127-22.108 66.283 66.283 0 0 1 11.275-19.086 70.242 70.242 0 0 1 16.728-14.517 69.161 69.161 0 0 1 20.855-8.548 46.231 46.231 0 0 1 7.959-1.179c2.505-.147 4.716-.147 6.559-.147 2.211.074 4.2.221 6.117.442z" class="cls-1" data-name="Path 152" transform="translate(-60.402 -29.664)"/>
            <path id="Path_153" d="M451.4 162.179a86.291 86.291 0 0 1 6.411-32.277 107.848 107.848 0 0 1 17.612-29.256 117.036 117.036 0 0 1 26.161-22.992 100.5 100.5 0 0 1 31.909-13.559 78.4 78.4 0 0 1 31.907-1.106 62.771 62.771 0 0 1 26.161 10.98 57.77 57.77 0 0 1 17.613 21.223 65.456 65.456 0 0 1 6.411 29.33 86.293 86.293 0 0 1-6.411 32.277 107.849 107.849 0 0 1-17.613 29.256 117.039 117.039 0 0 1-26.161 22.993 100.5 100.5 0 0 1-31.909 13.559 78.4 78.4 0 0 1-31.909 1.105 62.77 62.77 0 0 1-26.161-10.98 57.769 57.769 0 0 1-17.612-21.223 65.677 65.677 0 0 1-6.409-29.33zm22.034-5.085a46.844 46.844 0 0 0 4.716 21.445 41.925 41.925 0 0 0 12.9 15.475 45.261 45.261 0 0 0 19.086 8.033 57.355 57.355 0 0 0 23.361-.811 73.173 73.173 0 0 0 23.36-9.875 83.684 83.684 0 0 0 19.086-16.876 79.9 79.9 0 0 0 12.9-21.445 63.192 63.192 0 0 0 4.716-23.582 46.843 46.843 0 0 0-4.716-21.445 42.523 42.523 0 0 0-12.9-15.475 45.26 45.26 0 0 0-19.086-8.032 57.355 57.355 0 0 0-23.36.811 74.871 74.871 0 0 0-23.361 9.875 83.683 83.683 0 0 0-19.086 16.876 79.9 79.9 0 0 0-12.9 21.445 62.905 62.905 0 0 0-4.716 23.581zm60.059 38.246a51.06 51.06 0 0 1-21 .737 41.989 41.989 0 0 1-17.1-7.3 37.791 37.791 0 0 1-11.57-13.854 42.541 42.541 0 0 1-4.2-19.307 56.16 56.16 0 0 1 4.2-21.223 71.87 71.87 0 0 1 11.57-19.16 76.039 76.039 0 0 1 17.1-15.107 66.189 66.189 0 0 1 21-8.917 49.826 49.826 0 0 1 21-.737 41.988 41.988 0 0 1 17.1 7.3 37.791 37.791 0 0 1 11.57 13.854 42.541 42.541 0 0 1 4.2 19.307 56.161 56.161 0 0 1-4.2 21.223 71.87 71.87 0 0 1-11.57 19.16 76.038 76.038 0 0 1-17.1 15.107 63 63 0 0 1-20.999 8.918zm-32.867-44.51a26.1 26.1 0 0 0 2.579 11.717 23.164 23.164 0 0 0 7 8.475 24.376 24.376 0 0 0 10.464 4.422A31.3 31.3 0 0 0 533.42 175a39.726 39.726 0 0 0 12.749-5.453 46.293 46.293 0 0 0 10.464-9.212 43 43 0 0 0 7-11.717 34.7 34.7 0 0 0 2.579-12.9 26.321 26.321 0 0 0-2.579-11.717 23.164 23.164 0 0 0-7-8.475 25.309 25.309 0 0 0-10.464-4.422 31.294 31.294 0 0 0-12.749.442 39.041 39.041 0 0 0-12.749 5.453 48.169 48.169 0 0 0-10.464 9.212 43 43 0 0 0-7 11.717 34.41 34.41 0 0 0-2.58 12.902z" class="cls-1" data-name="Path 153" transform="translate(-118.752 -16.268)"/>
            <path id="Path_154" d="M755.376 169.714a89.864 89.864 0 0 1-26.75 2.506c-7.959-.59-14.739-2.653-20.413-6.19a34.8 34.8 0 0 1-13.044-15.33c-3.021-6.706-4.569-15.033-4.569-24.982V29.772l49.964-11.5v93.958c0 5.306 1.105 9.064 3.39 11.349s6.043 2.8 11.349 1.548 9.138-3.464 11.349-6.78c2.284-3.316 3.39-7.59 3.39-12.9V11.5L820.3 0v95.948a76.54 76.54 0 0 1-4.569 27.045 64.836 64.836 0 0 1-13.117 21.371 76.359 76.359 0 0 1-20.487 15.549 103.888 103.888 0 0 1-26.751 9.801zm0-27.119q-35.151 8.069-35.151-25.2V41.12l-6.117 1.4v76.272c0 12.675 3.537 21.592 10.685 26.6 7.074 5.085 17.318 6.116 30.582 3.021 13.265-3.021 23.508-8.769 30.73-17.1s10.759-18.865 10.759-31.54V23.508l-6.337 1.474v76.272q0 33.272-35.151 41.346z" class="cls-1" data-name="Path 154" transform="translate(-181.679)"/>
        </g>
    </g>
    <g id="Group_122" data-name="Group 122" transform="translate(99.853 103.022)">
        <g id="Group_121" data-name="Group 121">
            <path id="Path_155" d="M135.5 495.5a89.961 89.961 0 0 1 6.559-34.193 103.473 103.473 0 0 1 17.833-29.107 107.527 107.527 0 0 1 26.235-21.96 109.976 109.976 0 0 1 31.909-12.9 100.373 100.373 0 0 1 41.71-1.4 68.465 68.465 0 0 1 15.033 4.5l-24.613 47.46a59.157 59.157 0 0 0-8.18-3.316 70.34 70.34 0 0 0-9.506-1.326 40.543 40.543 0 0 0-12.528 1.179 41.87 41.87 0 0 0-13.338 5.527 49.355 49.355 0 0 0-10.685 9.212 41.7 41.7 0 0 0-7.148 11.717 34.7 34.7 0 0 0-2.579 12.9 24.54 24.54 0 0 0 2.727 11.717 22.587 22.587 0 0 0 7.369 8.4 27.332 27.332 0 0 0 11.054 4.274 37.352 37.352 0 0 0 13.854-.663 55.7 55.7 0 0 0 13.338-4.864 67.644 67.644 0 0 0 9.875-6.338 48.267 48.267 0 0 0 8.18-7.738l24.613 36.183a95.991 95.991 0 0 1-15.033 12.307 169.269 169.269 0 0 1-18.055 10.022 113.274 113.274 0 0 1-24.171 8.254c-12.159 2.8-23.434 3.464-33.751 1.99s-19.234-4.79-26.75-10.022a53.518 53.518 0 0 1-17.613-21c-4.202-8.776-6.339-19.015-6.339-30.815zm29.551-6.78a60.331 60.331 0 0 1 3.832-21.224 66.079 66.079 0 0 1 10.906-19.013 71.8 71.8 0 0 1 17.1-15.033 69.839 69.839 0 0 1 22.476-9.212 67.119 67.119 0 0 1 10.907-1.695 48.3 48.3 0 0 1 8.106.074 24.368 24.368 0 0 1 6.78 1.179l3.316-6.19c-2.506-.442-5.158-.884-7.959-1.105a76.624 76.624 0 0 0-9.138.074 75.292 75.292 0 0 0-11.938 1.842 76.694 76.694 0 0 0-22.845 9.359 82.348 82.348 0 0 0-19.234 16.065 79 79 0 0 0-13.338 21.371 63.135 63.135 0 0 0-5.011 25.055c0 8.917 1.621 16.507 4.79 22.918a38.467 38.467 0 0 0 13.265 15.181 45.969 45.969 0 0 0 19.676 7.148 68.641 68.641 0 0 0 23.95-1.4 75.384 75.384 0 0 0 12.675-4.053 89.647 89.647 0 0 0 9.58-4.716 68.244 68.244 0 0 0 7.953-5.445l-3.316-4.643a42.47 42.47 0 0 1-7 5.011 68.922 68.922 0 0 1-8.475 4.348 72.883 72.883 0 0 1-11.5 3.685 60.473 60.473 0 0 1-23.213 1.253 38.744 38.744 0 0 1-17.465-7.074 35.241 35.241 0 0 1-11.054-14 50.732 50.732 0 0 1-3.826-19.755z" class="cls-1" data-name="Path 155" transform="translate(-135.5 -206.777)"/>
            <path id="Path_156" d="M335.7 372.5l49.964-11.5v51.364l27.929-6.411V354.6l50.185-11.5v151l-50.185 11.5v-55.941l-27.929 6.411V512L335.7 523.5zm29.477 126.088v-57.256l68.9-15.844v57.259l6.117-1.4V366.608l-6.117 1.4v52.027l-68.9 15.844v-52.027l-6.116 1.4v114.739z" class="cls-1" data-name="Path 156" transform="translate(-188.168 -193.283)"/>
            <path id="Path_157" d="M531.574 330.45l92.116-21.15v39.573l-42.226 9.727v16.728l41.489-9.506v37.583l-41.489 9.506v17.465l43.847-10.1v39.647L531.5 481.446v-151zm76.419 115.329v-5.453l-46.868 10.759v-49.6l44.51-10.243v-5.453l-44.51 10.243v-48.854l46.868-10.759v-5.453l-52.985 12.159v114.813z" class="cls-1" data-name="Path 157" transform="translate(-239.678 -184.391)"/>
            <path id="Path_158" d="M771.517 325.484a22.484 22.484 0 0 0-10.538-3.1 41.684 41.684 0 0 0-12.454.958 38.2 38.2 0 0 0-12.454 5.232 41.03 41.03 0 0 0-9.727 8.769 42.239 42.239 0 0 0-6.485 11.57 38.606 38.606 0 0 0-2.358 13.191 27.719 27.719 0 0 0 2.579 12.096 22.024 22.024 0 0 0 7 8.475 25.063 25.063 0 0 0 10.464 4.2 31.44 31.44 0 0 0 12.749-.59 38.875 38.875 0 0 0 14.518-6.632 49.142 49.142 0 0 0 11.275-11.5l-14.075 3.242v-31.688l60.28-13.854v50.258a115.684 115.684 0 0 1-12.9 19.823 120.692 120.692 0 0 1-16.728 16.876 109.773 109.773 0 0 1-20.044 12.97 99.448 99.448 0 0 1-22.255 8.032c-11.275 2.579-21.887 3.021-31.909 1.179a62.5 62.5 0 0 1-26.155-10.759 56.7 56.7 0 0 1-17.613-21.076 66.5 66.5 0 0 1-6.485-29.772 89.763 89.763 0 0 1 6.117-32.2 107.032 107.032 0 0 1 42.078-51.88 96.365 96.365 0 0 1 31.54-13.486c8.769-1.99 16.36-2.948 22.771-2.727A79.528 79.528 0 0 1 786.919 275a46.662 46.662 0 0 1 12.9 4.937zm2.358-29.772a37.439 37.439 0 0 0-6.78-.737 72.674 72.674 0 0 0-7.738.221 69.286 69.286 0 0 0-9.875 1.548 74.568 74.568 0 0 0-23.212 9.656 81.226 81.226 0 0 0-18.792 16.212 74.265 74.265 0 0 0-12.528 21.076 67.566 67.566 0 0 0-4.569 24.613c0 8.622 1.548 16.065 4.716 22.476a38.5 38.5 0 0 0 12.9 15.254 46.561 46.561 0 0 0 19.086 7.517 61.78 61.78 0 0 0 23.361-1.032 73.689 73.689 0 0 0 29.33-14.075 87.782 87.782 0 0 0 21.371-24.466V344.35l-24.834 5.674v5.453L795.1 351.2v22.624a73.606 73.606 0 0 1-18.865 20.855 67.179 67.179 0 0 1-25.645 12.012 57.206 57.206 0 0 1-21 1.105 40.25 40.25 0 0 1-17.1-6.706 35.554 35.554 0 0 1-11.57-13.854 45.76 45.76 0 0 1-4.2-20.192 60.984 60.984 0 0 1 4.127-22.108 66.282 66.282 0 0 1 11.275-19.086 70.241 70.241 0 0 1 16.728-14.517 69.16 69.16 0 0 1 20.855-8.548 46.234 46.234 0 0 1 7.959-1.179c2.506-.147 4.716-.147 6.559-.147a74.6 74.6 0 0 1 6.116.442z" class="cls-1" data-name="Path 158" transform="translate(-275.64 -174.857)"/>
            <path id="Path_159" d="M890.2 322.379a84.966 84.966 0 0 1 6.485-32.277 107.851 107.851 0 0 1 17.615-29.256 117.039 117.039 0 0 1 26.161-22.992 100.5 100.5 0 0 1 31.909-13.559 78.4 78.4 0 0 1 31.909-1.105 62.771 62.771 0 0 1 26.161 10.98 57.77 57.77 0 0 1 17.613 21.223 65.454 65.454 0 0 1 6.411 29.33A86.009 86.009 0 0 1 1048.05 317a107.854 107.854 0 0 1-17.613 29.256 117.036 117.036 0 0 1-26.161 22.992 100.5 100.5 0 0 1-31.909 13.559 78.4 78.4 0 0 1-31.909 1.105 62.771 62.771 0 0 1-26.161-10.98 57.77 57.77 0 0 1-17.612-21.223 64.513 64.513 0 0 1-6.485-29.33zm22.034-5.011a46.843 46.843 0 0 0 4.716 21.445 41.925 41.925 0 0 0 12.9 15.475 45.26 45.26 0 0 0 19.086 8.033 57.355 57.355 0 0 0 23.36-.811 74.87 74.87 0 0 0 23.36-9.875 85.165 85.165 0 0 0 19.086-16.8 79.9 79.9 0 0 0 12.9-21.445 63.192 63.192 0 0 0 4.716-23.582 46.843 46.843 0 0 0-4.716-21.445 42.521 42.521 0 0 0-12.9-15.475 45.26 45.26 0 0 0-19.086-8.033 57.355 57.355 0 0 0-23.36.811 74.871 74.871 0 0 0-23.36 9.875 83.682 83.682 0 0 0-19.086 16.876 79.9 79.9 0 0 0-12.9 21.445 60.6 60.6 0 0 0-4.716 23.506zm59.986 38.246a51.058 51.058 0 0 1-21 .737 41.989 41.989 0 0 1-17.1-7.3 37.79 37.79 0 0 1-11.57-13.854 42.54 42.54 0 0 1-4.2-19.307 56.159 56.159 0 0 1 4.2-21.223 71.868 71.868 0 0 1 11.57-19.16 76.038 76.038 0 0 1 17.1-15.107 66.187 66.187 0 0 1 21-8.917 51.059 51.059 0 0 1 21-.737 41.988 41.988 0 0 1 17.1 7.3 37.791 37.791 0 0 1 11.57 13.854 42.54 42.54 0 0 1 4.2 19.307 56.161 56.161 0 0 1-4.2 21.223 71.866 71.866 0 0 1-11.57 19.16 76.037 76.037 0 0 1-17.1 15.107 64.557 64.557 0 0 1-21 8.917zM939.427 311.1a26.1 26.1 0 0 0 2.579 11.717 23.163 23.163 0 0 0 7 8.475 24.376 24.376 0 0 0 10.464 4.422 31.3 31.3 0 0 0 12.749-.442 39.729 39.729 0 0 0 12.749-5.453 46.294 46.294 0 0 0 10.464-9.212 43 43 0 0 0 7-11.717 34.7 34.7 0 0 0 2.579-12.9 26.321 26.321 0 0 0-2.579-11.717 23.164 23.164 0 0 0-7-8.475 25.308 25.308 0 0 0-10.464-4.422 31.3 31.3 0 0 0-12.749.442 39.042 39.042 0 0 0-12.749 5.453 48.169 48.169 0 0 0-10.464 9.212 43 43 0 0 0-7 11.717 32.764 32.764 0 0 0-2.579 12.9z" class="cls-1" data-name="Path 159" transform="translate(-334.043 -161.435)"/>
            <path id="Path_160" d="M1194.076 330.014a89.863 89.863 0 0 1-26.75 2.506c-7.959-.59-14.739-2.653-20.413-6.19a34.8 34.8 0 0 1-13.044-15.33c-3.021-6.706-4.569-15.033-4.569-24.982v-95.946l49.964-11.5v93.958c0 5.306 1.105 9.064 3.39 11.349s6.043 2.8 11.349 1.548 9.138-3.464 11.349-6.78c2.284-3.316 3.39-7.59 3.39-12.9V171.8l50.185-11.5v95.948a76.542 76.542 0 0 1-4.569 27.045 64.84 64.84 0 0 1-13.117 21.371 76.358 76.358 0 0 1-20.487 15.549 105.8 105.8 0 0 1-26.678 9.801zm0-27.193q-35.151 8.069-35.151-25.2v-76.274l-6.116 1.4v76.272c0 12.675 3.537 21.592 10.685 26.6 7.074 5.085 17.318 6.117 30.582 3.021 13.265-3.021 23.508-8.769 30.73-17.1 7.222-8.4 10.759-18.865 10.759-31.54v-76.266l-6.337 1.474v76.272q-.001 33.272-35.152 41.341z" class="cls-1" data-name="Path 160" transform="translate(-396.944 -145.193)"/>
            <path id="Path_161" d="M1321.9 152.107l53.427-12.307-7.959 108.181-37.51 8.622zm1.621 112.75l50.185-11.5v37.8l-50.185 11.5zm36.11 13.265v-5.232l-22.034 5.085v5.232zm-8.18-40.678v-75.389l-5.6 1.326V238.7z" class="cls-1" data-name="Path 161" transform="translate(-447.612 -139.8)"/>
        </g>
    </g>
</svg>
