<svg xmlns="http://www.w3.org/2000/svg" id="Group_75" data-name="Group 75" viewBox="0 0 160.111 39.856">
    <defs>
        <style>
            .cls-1{fill:#f24e5a}
        </style>
    </defs>
    <g id="Group_74" data-name="Group 74">
        <path id="Path_86" d="M21.987 14.035a18.5 18.5 0 0 0-5.632-1.115 5.314 5.314 0 0 0-2.831.658 2.149 2.149 0 0 0-1.029 1.944 2.626 2.626 0 0 0 .886 2.03 6.583 6.583 0 0 0 2.23 1.315c.886.343 2.173.772 3.917 1.287a51.577 51.577 0 0 1 6.376 2.23 11.271 11.271 0 0 1 4.317 3.4 9.5 9.5 0 0 1 1.8 6 10.376 10.376 0 0 1-1.944 6.319 11.927 11.927 0 0 1-5.377 3.951 20.817 20.817 0 0 1-7.6 1.315 27.951 27.951 0 0 1-9.178-1.6A24.412 24.412 0 0 1 0 37.394l3.745-7.577a23.379 23.379 0 0 0 6.633 4.089 18.161 18.161 0 0 0 6.8 1.6 6.115 6.115 0 0 0 3.4-.8 2.6 2.6 0 0 0 1.229-2.316 2.79 2.79 0 0 0-.915-2.116 7.056 7.056 0 0 0-2.316-1.344q-1.415-.515-3.946-1.2a51.066 51.066 0 0 1-6.29-2.144A11.067 11.067 0 0 1 4.089 22.3a9.18 9.18 0 0 1-1.773-5.861 10.115 10.115 0 0 1 1.83-6.039 11.882 11.882 0 0 1 5.175-4A20.166 20.166 0 0 1 17.155 5 27.978 27.978 0 0 1 25.1 6.144a27.146 27.146 0 0 1 6.89 3.031l-3.688 7.72a34.145 34.145 0 0 0-6.315-2.86z" data-name="Path 86" transform="translate(0 -3.57)"/>
        <path id="Path_87" d="M144.745 37.93a13.33 13.33 0 0 1 5.518 5.146 14.582 14.582 0 0 1 1.944 7.634 15 15 0 0 1-1.944 7.691 13.516 13.516 0 0 1-5.518 5.146 19.314 19.314 0 0 1-16.411 0 13.086 13.086 0 0 1-5.489-5.146 15 15 0 0 1-1.945-7.691 14.582 14.582 0 0 1 1.944-7.634 13.266 13.266 0 0 1 5.489-5.146 19.314 19.314 0 0 1 16.411 0zm-12.637 7.748a7.547 7.547 0 0 0-1.687 5.146A7.667 7.667 0 0 0 132.108 56a5.512 5.512 0 0 0 4.432 1.944A5.677 5.677 0 0 0 141.028 56a7.719 7.719 0 0 0 1.687-5.175A7.561 7.561 0 0 0 141 45.678a5.609 5.609 0 0 0-4.46-1.944 5.464 5.464 0 0 0-4.432 1.944z" data-name="Path 87" transform="translate(-86.333 -25.779)"/>
        <path id="Path_88" d="M244.5 0h9.406v39.256H244.5z" data-name="Path 88" transform="translate(-174.595)"/>
        <path id="Path_89" d="M290 37.2h9.692l5.976 19.9 6.032-19.9h9.406l-10.75 28.62h-9.692z" data-name="Path 89" transform="translate(-207.086 -26.564)"/>
        <path id="Path_90" d="M429.993 0v39.256h-9.407v-3.717a9.708 9.708 0 0 1-3.631 3.031 11 11 0 0 1-4.832 1.029 13.042 13.042 0 0 1-6.976-1.858 12.558 12.558 0 0 1-4.689-5.2 17.163 17.163 0 0 1-1.658-7.748 17.04 17.04 0 0 1 1.63-7.634 12.23 12.23 0 0 1 4.6-5.089 12.965 12.965 0 0 1 6.89-1.8 11.115 11.115 0 0 1 4.946 1.058 10.3 10.3 0 0 1 3.717 3.031V0zm-11.122 30.249a7.692 7.692 0 0 0 1.687-5.146 7.667 7.667 0 0 0-1.687-5.175 5.551 5.551 0 0 0-4.432-1.944 5.632 5.632 0 0 0-4.46 1.973 7.561 7.561 0 0 0-1.715 5.146 7.561 7.561 0 0 0 1.715 5.146 5.632 5.632 0 0 0 4.46 1.973 5.535 5.535 0 0 0 4.432-1.973z" data-name="Path 90" transform="translate(-284.778)"/>
    </g>
    <circle id="Ellipse_1" cx="5.146" cy="5.146" r="5.146" class="cls-1" data-name="Ellipse 1" transform="translate(149.818 29.563)"/>
</svg>
